<svg xmlns="http://www.w3.org/2000/svg" width="25.974" height="19.998" viewBox="0 0 25.974 19.998"><defs><style>.a{fill:#2e2e2e;}</style></defs><path class="a" d="M282.632,124.54a1.176,1.176,0,0,1-.238-1.15q1.145-4.1,2.309-8.208c-.049,0-.016-.016.031-.11.94.591,1.865,1.183,2.789,1.758,1.178.745,2.357,1.507,3.552,2.238a2.663,2.663,0,0,1,1.338,2.394c0,.762.016,1.508,0,2.27a1.181,1.181,0,0,1-1.259,1.228,1.146,1.146,0,0,1-1.2-1.273,5.387,5.387,0,0,1,.017-1.136,1.792,1.792,0,0,0-1.163-2.115c-.893-.435-1.689-1.04-2.6-1.6-.175.592-.319,1.1-.462,1.617-.335,1.213-.653,2.426-1.021,3.623a1.221,1.221,0,0,1-2.1.466Zm12.857.374c.286-.761.525-1.492.843-2.178a1.218,1.218,0,0,1,1.179-.667h1.657l.048-.139c-.176-.111-.334-.233-.51-.327q-6.5-3.918-13.015-7.836c-1-.606-1.13-1.212-.413-2.13a12.4,12.4,0,0,1,1.242-1.462,3.768,3.768,0,0,1,3.632-.808c.589.139,1.147.342,1.737.5a3.682,3.682,0,0,1,2.756,3c.271,1.228.494,2.456.764,3.685a.655.655,0,0,0,.255.388c1.706,1.027,3.41,2.053,5.114,3.063.032.032.08.032.16.063.335-.467.653-.932.987-1.415a1.271,1.271,0,0,1,2.31.016q1.936,2.939,3.871,5.875c.064.094.112.2.207.374Zm-5.242-17.879a2.1,2.1,0,0,1,2.166-2.067,2.127,2.127,0,0,1,2.166,2.177,2.15,2.15,0,0,1-2.182,2.083A2.117,2.117,0,0,1,290.246,107.034Z" transform="translate(-282.338 -104.967)"/></svg>