<svg xmlns="http://www.w3.org/2000/svg" width="24" height="20" viewBox="0 0 24 20"><defs><style>.a{fill:#2e2e2e;}</style></defs><path class="a" d="M289.731,105.35a.567.567,0,0,0-.8,0h0l-2.985,2.931-1.064-1.024a.568.568,0,0,0-.8,0h0l-.736.728a.551.551,0,0,0,0,.785h0l2.231,2.194a.6.6,0,0,0,.826,0l.731-.723,3.384-3.342a.554.554,0,0,0,0-.787Zm0,7.37a.567.567,0,0,0-.8,0h0l-2.985,2.95-1.064-1.023a.568.568,0,0,0-.8,0h0l-.736.727a.551.551,0,0,0,0,.785h0l2.225,2.2a.6.6,0,0,0,.825,0l.736-.727,3.384-3.344a.551.551,0,0,0,0-.782Zm-3.544,8.023a2.223,2.223,0,1,0,0,4.444,2.222,2.222,0,1,0,0-4.444Zm20.251.741h-13.5a.745.745,0,0,0-.75.74v1.482a.745.745,0,0,0,.75.741h13.5a.745.745,0,0,0,.75-.741v-1.482A.745.745,0,0,0,306.437,121.484Zm0-14.815h-13.5a.745.745,0,0,0-.75.741v1.481a.745.745,0,0,0,.75.741h13.5a.745.745,0,0,0,.75-.741V107.41A.745.745,0,0,0,306.437,106.669Zm0,7.407h-13.5a.745.745,0,0,0-.75.741V116.3a.745.745,0,0,0,.75.741h13.5a.745.745,0,0,0,.75-.741v-1.481A.745.745,0,0,0,306.437,114.077Z" transform="translate(-283.187 -105.187)"/></svg>